# xmcd
#
# Track frame offsets:
#	150
#	41855
#	69501
#	83080
#	139306
#	179745
#
# Disc length: 2877 seconds
#
# Revision: 1
# Processed by: cddbd v1.5.2PL0 Copyright (c) Steve Scherf et al.
# Submitted via: audiograbber 1.83.01
#
DISCID=570b3b06
DTITLE=Grateful Dead - 82-04-06 The Spectrum, Philadelphia PA
DYEAR=1900
DGENRE=
TTITLE0=Space
TTITLE1=Truckin'
TTITLE2=The Other One
TTITLE3=Morning Dew
TTITLE4=Sugar Magnolia
TTITLE5=It's All Over Now, Baby Blue
EXTD=
EXTT0=
EXTT1=
EXTT2=
EXTT3=
EXTT4=
EXTT5=
PLAYORDER=
